<svg width="526" height="398" viewBox="0 0 526 398" fill="none" xmlns="http://www.w3.org/2000/svg">
<g filter="url(#filter0_d_11_56)">
<path d="M446.25 336.375H408.875V362.062H452.562V376.25H391.25V285.25H452.375V299.562H408.875V322.5H446.25V336.375Z" fill="#20DFCD"/>
<path d="M446.25 338.375H448.25V336.375V322.5V320.5H446.25H410.875V301.562H452.375H454.375V299.562V285.25V283.25H452.375H391.25H389.25V285.25V376.25V378.25H391.25H452.562H454.562V376.25V362.062V360.062H452.562H410.875V338.375H446.25Z" stroke="white" stroke-width="4"/>
</g>
<g filter="url(#filter1_d_11_56)">
<path d="M313 376.25V285.25H336.562C340.771 285.25 344.708 285.771 348.375 286.812C352.042 287.812 355.375 289.25 358.375 291.125C361 292.667 363.333 294.562 365.375 296.812C367.458 299.021 369.271 301.438 370.812 304.062C372.604 307.271 373.979 310.812 374.938 314.688C375.938 318.562 376.438 322.688 376.438 327.062V334.562C376.438 338.771 375.979 342.75 375.062 346.5C374.146 350.25 372.854 353.688 371.188 356.812C369.604 359.604 367.75 362.188 365.625 364.562C363.5 366.896 361.167 368.854 358.625 370.438C355.667 372.312 352.396 373.75 348.812 374.75C345.271 375.75 341.479 376.25 337.438 376.25H313ZM330.688 299.5V362.125H337.438C339.604 362.125 341.625 361.854 343.5 361.312C345.375 360.771 347.083 359.979 348.625 358.938C350.208 357.854 351.625 356.479 352.875 354.812C354.167 353.104 355.271 351.125 356.188 348.875C356.938 346.917 357.5 344.75 357.875 342.375C358.292 339.958 358.5 337.354 358.5 334.562V326.938C358.5 324.312 358.292 321.833 357.875 319.5C357.5 317.125 356.938 314.958 356.188 313C355.271 310.667 354.062 308.583 352.562 306.75C351.104 304.917 349.396 303.417 347.438 302.25C345.938 301.375 344.271 300.708 342.438 300.25C340.646 299.75 338.688 299.5 336.562 299.5H330.688Z" fill="#20DFCD"/>
<path d="M311 376.25V378.25H313H337.438C341.644 378.25 345.62 377.729 349.354 376.675C353.11 375.627 356.559 374.114 359.689 372.131C362.392 370.446 364.864 368.369 367.104 365.909L367.11 365.903L367.115 365.896C369.336 363.414 371.274 360.714 372.927 357.799L372.94 357.777L372.952 357.754C374.704 354.469 376.053 350.873 377.005 346.975C377.963 343.056 378.438 338.917 378.438 334.562V327.062C378.438 322.538 377.921 318.247 376.877 314.197C375.879 310.168 374.443 306.461 372.559 303.087L372.548 303.068L372.537 303.05C370.923 300.301 369.024 297.768 366.843 295.454C364.674 293.067 362.195 291.053 359.412 289.414C356.243 287.437 352.739 285.931 348.911 284.886C345.052 283.791 340.933 283.25 336.562 283.25H313H311V285.25V376.25ZM351.28 353.606L351.275 353.613C350.146 355.117 348.887 356.334 347.501 357.283C346.142 358.201 344.627 358.905 342.945 359.391C341.269 359.875 339.437 360.125 337.438 360.125H332.688V301.5H336.562C338.531 301.5 340.306 301.732 341.9 302.176L341.926 302.184L341.952 302.19C343.615 302.606 345.101 303.203 346.422 303.973C348.164 305.012 349.687 306.348 350.997 307.995L351.006 308.006L351.015 308.016C352.374 309.678 353.478 311.576 354.323 313.723C355.015 315.532 355.544 317.558 355.899 319.812L355.903 319.832L355.906 319.852C356.3 322.057 356.5 324.418 356.5 326.938V334.562C356.5 337.256 356.299 339.745 355.904 342.035L355.902 342.049L355.899 342.063C355.544 344.312 355.017 346.334 354.327 348.14C353.469 350.242 352.45 352.059 351.28 353.606Z" stroke="white" stroke-width="4"/>
</g>
<g filter="url(#filter2_d_11_56)">
<path d="M240.375 285.25H293V299.438H275.25V362.125H293V376.25H240.375V362.125H257.688V299.438H240.375V285.25Z" fill="#20DFCD"/>
<path d="M240.375 283.25H238.375V285.25V299.438V301.438H240.375H255.688V360.125H240.375H238.375V362.125V376.25V378.25H240.375H293H295V376.25V362.125V360.125H293H277.25V301.438H293H295V299.438V285.25V283.25H293H240.375Z" stroke="white" stroke-width="4"/>
</g>
<g filter="url(#filter3_d_11_56)">
<path d="M220.25 285.25L220.312 345.562C220.312 350.646 219.604 355.167 218.188 359.125C216.812 363.083 214.812 366.417 212.188 369.125C209.521 371.875 206.271 373.958 202.438 375.375C198.646 376.792 194.312 377.5 189.438 377.5C184.854 377.5 180.708 376.792 177 375.375C173.333 373.958 170.188 371.896 167.562 369.188C164.938 366.479 162.896 363.146 161.438 359.188C160.021 355.188 159.312 350.646 159.312 345.562L159.375 285.25H176.938L177 345.562C177.042 348.604 177.333 351.271 177.875 353.562C178.458 355.854 179.312 357.75 180.438 359.25C181.479 360.625 182.75 361.667 184.25 362.375C185.75 363.042 187.479 363.375 189.438 363.375C191.562 363.375 193.438 363.021 195.062 362.312C196.729 361.562 198.104 360.458 199.188 359C200.354 357.5 201.229 355.625 201.812 353.375C202.396 351.125 202.708 348.521 202.75 345.562L202.812 285.25H220.25Z" fill="#20DFCD"/>
<path d="M222.25 285.248L222.248 283.25H220.25H202.812H200.815L200.812 285.248L200.75 345.547C200.709 348.381 200.41 350.816 199.877 352.873C199.347 354.917 198.575 356.53 197.609 357.772L197.595 357.79L197.582 357.807C196.706 358.987 195.605 359.873 194.252 360.484C192.927 361.06 191.336 361.375 189.438 361.375C187.716 361.375 186.279 361.084 185.083 360.557C183.897 359.992 182.884 359.166 182.034 358.046C181.107 356.808 180.351 355.176 179.817 353.086C179.321 350.977 179.041 348.47 179 345.548L178.937 285.248L178.935 283.25H176.938H159.375H157.377L157.375 285.248L157.312 345.56V345.562C157.312 350.83 158.046 355.603 159.552 359.855L159.556 359.867L159.561 359.879C161.104 364.068 163.285 367.648 166.126 370.579C168.961 373.504 172.354 375.724 176.279 377.241L176.286 377.243C180.255 378.759 184.647 379.5 189.438 379.5C194.502 379.5 199.078 378.764 203.134 377.25C207.227 375.737 210.735 373.496 213.623 370.517L213.624 370.517C216.471 367.579 218.614 363.989 220.074 359.79C221.58 355.578 222.312 350.825 222.312 345.562V345.56L222.25 285.248Z" stroke="white" stroke-width="4"/>
</g>
<g filter="url(#filter4_d_11_56)">
<path d="M145.312 365.625C144.188 367 142.646 368.396 140.688 369.812C138.729 371.229 136.417 372.5 133.75 373.625C131.042 374.792 128.021 375.729 124.688 376.438C121.354 377.146 117.771 377.5 113.938 377.5C110.604 377.5 107.458 377.104 104.5 376.312C101.583 375.562 98.8958 374.458 96.4375 373C94.0208 371.5 91.8125 369.667 89.8125 367.5C87.8542 365.333 86.1875 362.854 84.8125 360.062C83.2292 356.979 82.0208 353.5 81.1875 349.625C80.3958 345.75 80 341.542 80 337V324.625C80 320.292 80.3958 316.271 81.1875 312.562C81.9792 308.812 83.1042 305.417 84.5625 302.375C85.9375 299.667 87.5208 297.229 89.3125 295.062C91.1458 292.896 93.1458 291.021 95.3125 289.438C97.8542 287.646 100.625 286.292 103.625 285.375C106.625 284.458 109.792 284 113.125 284C118.25 284 122.708 284.646 126.5 285.938C130.333 287.229 133.562 289.083 136.188 291.5C138.812 293.958 140.854 296.938 142.312 300.438C143.812 303.938 144.792 307.875 145.25 312.25H128.125C127.833 310.042 127.375 308.083 126.75 306.375C126.167 304.667 125.354 303.229 124.312 302.062C123.146 300.771 121.667 299.812 119.875 299.188C118.125 298.521 116.021 298.188 113.562 298.188C112.229 298.188 110.938 298.396 109.688 298.812C108.438 299.229 107.271 299.833 106.188 300.625C104.771 301.708 103.479 303.125 102.312 304.875C101.188 306.625 100.25 308.688 99.5 311.062C98.9167 312.896 98.4583 314.938 98.125 317.188C97.8333 319.438 97.6875 321.875 97.6875 324.5V337C97.6875 340.292 97.8958 343.292 98.3125 346C98.7708 348.708 99.3958 351.104 100.188 353.188C100.688 354.396 101.25 355.521 101.875 356.562C102.542 357.562 103.271 358.458 104.062 359.25C105.396 360.583 106.938 361.604 108.688 362.312C110.479 362.979 112.5 363.333 114.75 363.375C116.125 363.375 117.479 363.271 118.812 363.062C120.146 362.854 121.396 362.562 122.562 362.188C123.729 361.812 124.75 361.396 125.625 360.938C126.542 360.438 127.229 359.917 127.688 359.375L127.75 342.875H112.688V329.75H145.25L145.312 365.625Z" fill="#20DFCD"/>
<path d="M146.86 366.891L147.314 366.337L147.312 365.622L147.25 329.747L147.247 327.75H145.25H112.688H110.688V329.75V342.875V344.875H112.688H125.742L125.691 358.523C125.44 358.72 125.11 358.939 124.682 359.174C123.932 359.565 123.026 359.938 121.95 360.283C120.892 360.624 119.744 360.893 118.504 361.086C117.28 361.278 116.036 361.374 114.769 361.375C112.725 361.335 110.947 361.015 109.412 360.448C107.921 359.841 106.614 358.973 105.477 357.836C104.795 357.154 104.157 356.375 103.565 355.493C103.009 354.561 102.502 353.547 102.047 352.45C101.317 350.522 100.726 348.271 100.287 345.681C99.89 343.095 99.6875 340.203 99.6875 337V324.5C99.6875 321.955 99.8286 319.61 100.106 317.463C100.426 315.308 100.862 313.379 101.406 311.669L101.407 311.665C102.112 309.433 102.977 307.543 103.986 305.97C105.044 304.386 106.182 303.151 107.385 302.227C108.3 301.561 109.276 301.058 110.32 300.71C111.364 300.362 112.442 300.188 113.562 300.188C115.85 300.188 117.699 300.499 119.163 301.056L119.189 301.067L119.216 301.076C120.718 301.6 121.903 302.38 122.825 303.399C123.661 304.337 124.348 305.53 124.857 307.021L124.864 307.042L124.872 307.062C125.437 308.606 125.866 310.418 126.142 312.512L126.372 314.25H128.125H145.25H147.47L147.239 312.042C146.763 307.501 145.743 303.367 144.155 299.659C142.594 295.916 140.395 292.7 137.555 290.04L137.548 290.034L137.542 290.029C134.686 287.399 131.204 285.412 127.142 284.043C123.094 282.665 118.41 282 113.125 282C109.606 282 106.241 282.484 103.041 283.462C99.8395 284.44 96.8767 285.888 94.1602 287.803L94.1462 287.813L94.1325 287.823C91.8307 289.505 89.7156 291.49 87.7857 293.771L87.7784 293.779L87.7712 293.788C85.8783 296.077 84.2157 298.64 82.7792 301.47L82.7689 301.49L82.7591 301.51C81.2234 304.713 80.0513 308.263 79.2311 312.147C78.4066 316.01 78 320.172 78 324.625V337C78 341.657 78.4058 346.001 79.228 350.025L79.23 350.035L79.2322 350.045C80.0959 354.062 81.3556 357.705 83.0258 360.961C84.4758 363.902 86.242 366.532 88.3288 368.841L88.3358 368.849L88.3429 368.857C90.4606 371.151 92.8075 373.101 95.3828 374.699L95.3998 374.71L95.4171 374.72C98.0444 376.279 100.906 377.453 103.993 378.247C107.131 379.086 110.449 379.5 113.938 379.5C117.894 379.5 121.617 379.135 125.103 378.394C128.543 377.663 131.69 376.69 134.534 375.465C137.311 374.293 139.759 372.953 141.86 371.433C143.911 369.949 145.595 368.438 146.86 366.891Z" stroke="white" stroke-width="4"/>
</g>
<g filter="url(#filter5_d_11_56)">
<path d="M430.75 256L398 120L434.312 165L440.375 215.875L440.812 219.438L441.375 215.688L448.562 123H461.125L468.75 216.062L469.312 219.812L469.75 216L475.938 165L499 123L479.438 256H463.562L455.625 206.875L454.938 202.25L454.25 206.875L446.625 256H430.75Z" fill="#CE1E2E"/>
<path d="M429.292 256.351L429.568 257.5H430.75H446.625H447.91L448.107 256.23L454.953 212.123L462.082 256.239L462.285 257.5H463.562H479.438H480.733L480.922 256.218L500.484 123.218L497.685 122.278L474.623 164.278L474.483 164.532L474.448 164.819L469.439 206.107L462.62 122.878L462.507 121.5H461.125H448.562H447.174L447.067 122.884L440.656 205.557L435.802 164.823L435.751 164.394L435.48 164.058L399.167 119.058L396.542 120.351L429.292 256.351Z" stroke="white" stroke-width="3"/>
</g>
<g filter="url(#filter6_d_11_56)">
<path d="M392.688 237H365.375L341.5 316V256L371.312 123.5H387.25L438.5 316L398 256L392.688 237ZM369.688 222.062H388.562L379.25 188.562L369.688 222.062Z" fill="#CE1E2E"/>
<path d="M340 316L342.936 316.434L366.489 238.5H391.549L396.555 256.404L396.621 256.638L396.757 256.839L437.257 316.839L439.95 315.614L388.7 123.114L388.403 122H387.25H371.312H370.112L369.849 123.171L340.037 255.671L340 255.833V256V316ZM371.676 220.562L379.231 194.094L386.589 220.562H371.676Z" stroke="white" stroke-width="3"/>
</g>
<g filter="url(#filter7_d_11_56)">
<path d="M292.625 165L301.25 199.188L311.062 165H332.875V314.5L316.75 256V229.062L317.5 186.5L305.562 226H296.875L286.188 188.188L286.938 229.062V256L270.812 314.5V165H292.625Z" fill="#CE1E2E"/>
<path d="M294.079 164.633L293.794 163.5H292.625H270.812H269.312V165V314.5L272.259 314.899L288.384 256.399L288.438 256.203V256V229.062V229.049L288.437 229.035L287.9 199.762L295.432 226.408L295.74 227.5H296.875H305.562H306.676L306.998 226.434L315.81 197.278L315.25 229.036L315.25 229.049V229.062V256V256.203L315.304 256.399L331.429 314.899L334.375 314.5V165V163.5H332.875H311.062H309.932L309.621 164.586L301.343 193.425L294.079 164.633Z" stroke="white" stroke-width="3"/>
</g>
<g filter="url(#filter8_d_11_56)">
<path d="M254.188 256H236.688L211.375 197.312V314.5L193.688 256L188 162L215 152.5L236.5 223.438C236.5 223.438 240.5 175.5 236.5 155C232.5 134.5 258.66 131.313 268 101L254.188 256Z" fill="#CE1E2E"/>
<path d="M254.188 257.5H255.56L255.682 256.133L269.494 101.133L266.567 100.558C262.183 114.786 254.023 122.863 246.975 129.839C246.712 130.099 246.451 130.358 246.191 130.615C242.61 134.167 239.266 137.577 237.11 141.447C234.91 145.398 233.957 149.8 235.028 155.287C236.99 165.345 237.002 182.288 236.501 196.855C236.256 203.966 235.892 210.465 235.584 215.244L216.436 152.065L215.981 150.565L214.502 151.085L187.502 160.585L186.434 160.961L186.503 162.091L192.19 256.091L192.201 256.266L192.252 256.434L209.939 314.934L212.875 314.5V204.578L235.31 256.594L235.701 257.5H236.688H254.188Z" stroke="white" stroke-width="3"/>
</g>
<g filter="url(#filter9_d_11_56)">
<path d="M162.062 237H134.75L129.375 256L80 313.5L129.375 168.5C137.059 169.959 157.079 167.242 162.062 166L206.5 313.5L167.375 256L162.062 237ZM139.062 222.063H157.938L148.625 188.563L139.062 222.063Z" fill="#CE1E2E"/>
<path d="M130.513 256.977L130.728 256.726L130.818 256.408L135.885 238.5H160.924L165.93 256.404L165.997 256.641L166.135 256.844L205.26 314.344L207.936 313.067L163.499 165.567L163.086 164.199L161.7 164.545C159.315 165.139 153.15 166.12 146.584 166.77C139.972 167.425 133.254 167.71 129.655 167.026L128.375 166.783L127.955 168.016L78.5801 313.017L81.138 314.477L130.513 256.977ZM141.051 220.563L148.606 194.094L155.964 220.563H141.051Z" stroke="white" stroke-width="3"/>
</g>
<g filter="url(#filter10_d_11_56)">
<path d="M42 254.312L10.5 115C16.9859 136.922 35.4232 154.912 70.875 165C75.8333 165 80.3333 165.5 84.375 166.5C88.4583 167.5 91.9375 169.021 94.8125 171.062C97.6875 173.104 99.8958 175.688 101.438 178.812C103.021 181.938 103.812 185.625 103.812 189.875C103.771 192.625 103.271 195.229 102.312 197.688C101.396 200.104 100.021 202.229 98.1875 204.062C97.1875 205.062 96.0417 205.979 94.75 206.812C93.5 207.646 92.1042 208.354 90.5625 208.938V209C93.5625 209.833 95.9375 210.896 97.6875 212.188C99.4792 213.479 100.979 214.979 102.188 216.688C103.438 218.521 104.354 220.521 104.938 222.688C105.562 224.812 105.875 227.021 105.875 229.312C105.875 233.688 105.125 237.542 103.625 240.875C102.125 244.208 99.9792 247 97.1875 249.25C94.3958 251.5 91 253.188 87 254.312C83 255.438 78.5 256 73.5 256L42 254.312ZM57.9375 215.875V241.812H73.5625C75.8542 241.812 77.8958 241.521 79.6875 240.938C81.5208 240.354 83.0417 239.562 84.25 238.562C85.5833 237.438 86.5833 236.083 87.25 234.5C87.9583 232.917 88.3125 231.146 88.3125 229.188C88.3125 227.146 88.0417 225.312 87.5 223.688C87 222.062 86.1875 220.688 85.0625 219.562C83.9375 218.396 82.4792 217.5 80.6875 216.875C78.8958 216.25 76.7708 215.917 74.3125 215.875H57.9375ZM57.9375 203.188H71C73.6667 203.146 76.0208 202.833 78.0625 202.25C80.1042 201.625 81.75 200.708 83 199.5C84.0417 198.542 84.8333 197.375 85.375 196C85.9583 194.625 86.25 193.062 86.25 191.312C86.25 189.479 86 187.875 85.5 186.5C85.0417 185.125 84.3333 183.979 83.375 183.062C82.125 181.771 80.4375 180.833 78.3125 180.25C76.2292 179.667 73.7708 179.354 70.9375 179.312H57.9375V203.188Z" fill="#CE1E2E"/>
<path d="M40.5369 254.643L40.7871 255.75L41.9198 255.81L73.4198 257.498L73.4599 257.5H73.5C78.6104 257.5 83.2504 256.925 87.4061 255.756C91.5706 254.585 95.1561 252.814 98.1288 250.418C101.108 248.017 103.398 245.035 104.993 241.491C106.595 237.929 107.375 233.859 107.375 229.312C107.375 226.888 107.045 224.543 106.381 222.281C105.755 219.96 104.769 217.812 103.427 215.842L103.42 215.832L103.412 215.821C102.104 213.972 100.487 212.358 98.5713 210.976C97.4192 210.126 96.0516 209.385 94.4833 208.743C94.8563 208.527 95.2195 208.302 95.5727 208.067C96.9422 207.182 98.1693 206.202 99.2482 205.123C101.229 203.142 102.72 200.839 103.713 198.226C104.737 195.596 105.268 192.816 105.312 189.898L105.312 189.886V189.875C105.312 185.442 104.487 181.515 102.779 178.142C101.126 174.794 98.7541 172.022 95.681 169.84C92.6254 167.67 88.9649 166.08 84.7328 165.043C80.6122 164.024 76.06 163.514 71.0858 163.5C36.1006 153.498 18.225 135.823 11.9384 114.574L9.03693 115.331L40.5369 254.643ZM79.2327 239.508L79.2231 239.511C77.6098 240.036 75.7293 240.312 73.5625 240.312H59.4375V217.375H74.2995C76.6373 217.416 78.5924 217.733 80.1934 218.291C81.801 218.852 83.0466 219.633 83.9827 220.604L83.9922 220.614L84.0018 220.623C84.942 221.563 85.6332 222.721 86.0663 224.129L86.0715 224.145L86.077 224.162C86.559 225.608 86.8125 227.277 86.8125 229.188C86.8125 230.962 86.4924 232.52 85.8808 233.887L85.874 233.903L85.8675 233.918C85.2952 235.277 84.4407 236.438 83.2882 237.411C82.2581 238.263 80.9201 238.971 79.2327 239.508ZM81.9844 198.396L81.9708 198.409L81.9575 198.422C80.9147 199.43 79.4962 200.241 77.6366 200.812C75.7546 201.348 73.5441 201.647 70.9882 201.688H59.4375V180.812H70.9262C73.663 180.853 75.9834 181.156 77.9081 181.694L77.9154 181.696C79.8398 182.225 81.2718 183.046 82.2971 184.106L82.3172 184.126L82.3382 184.146C83.1041 184.879 83.6885 185.809 84.077 186.974L84.0834 186.994L84.0903 187.013C84.5176 188.188 84.75 189.612 84.75 191.312C84.75 192.895 84.4865 194.253 83.9941 195.414L83.9865 195.432L83.9794 195.45C83.5171 196.624 82.8517 197.598 81.9844 198.396Z" stroke="white" stroke-width="3"/>
</g>
<g filter="url(#filter11_d_11_56)">
<path fill-rule="evenodd" clip-rule="evenodd" d="M266 80C266 124.183 207.349 160 135 160C62.6507 160 4 124.183 4 80C4 35.8172 62.6507 0 135 0C207.349 0 266 35.8172 266 80ZM242 80C242 90.5585 234.894 104.012 215.123 116.086C197.446 126.912 181.211 135.642 163.222 138.699C137.56 143.059 112.851 140.96 92.7222 136.533C78.9387 133.501 65.0805 126.877 56.7567 122.987C56.1213 122.762 55.4949 122.463 54.8775 122.086C35.1062 110.012 28 90.5585 28 80C28 69.4415 35.1062 55.9882 54.8775 43.9141C74.2345 32.093 102.502 24 135 24C167.498 24 195.765 32.093 215.123 43.9141C234.894 55.9882 242 69.4415 242 80Z" fill="#20DFCD"/>
</g>
<defs>
<filter id="filter0_d_11_56" x="381.25" y="281.25" width="81.3125" height="115" filterUnits="userSpaceOnUse" color-interpolation-filters="sRGB">
<feFlood flood-opacity="0" result="BackgroundImageFix"/>
<feColorMatrix in="SourceAlpha" type="matrix" values="0 0 0 0 0 0 0 0 0 0 0 0 0 0 0 0 0 0 127 0" result="hardAlpha"/>
<feOffset dy="10"/>
<feGaussianBlur stdDeviation="3"/>
<feComposite in2="hardAlpha" operator="out"/>
<feColorMatrix type="matrix" values="0 0 0 0 0 0 0 0 0 0 0 0 0 0 0 0 0 0 0.25 0"/>
<feBlend mode="normal" in2="BackgroundImageFix" result="effect1_dropShadow_11_56"/>
<feBlend mode="normal" in="SourceGraphic" in2="effect1_dropShadow_11_56" result="shape"/>
</filter>
<filter id="filter1_d_11_56" x="303" y="281.25" width="83.4375" height="115" filterUnits="userSpaceOnUse" color-interpolation-filters="sRGB">
<feFlood flood-opacity="0" result="BackgroundImageFix"/>
<feColorMatrix in="SourceAlpha" type="matrix" values="0 0 0 0 0 0 0 0 0 0 0 0 0 0 0 0 0 0 127 0" result="hardAlpha"/>
<feOffset dy="10"/>
<feGaussianBlur stdDeviation="3"/>
<feComposite in2="hardAlpha" operator="out"/>
<feColorMatrix type="matrix" values="0 0 0 0 0 0 0 0 0 0 0 0 0 0 0 0 0 0 0.25 0"/>
<feBlend mode="normal" in2="BackgroundImageFix" result="effect1_dropShadow_11_56"/>
<feBlend mode="normal" in="SourceGraphic" in2="effect1_dropShadow_11_56" result="shape"/>
</filter>
<filter id="filter2_d_11_56" x="230.375" y="281.25" width="72.625" height="115" filterUnits="userSpaceOnUse" color-interpolation-filters="sRGB">
<feFlood flood-opacity="0" result="BackgroundImageFix"/>
<feColorMatrix in="SourceAlpha" type="matrix" values="0 0 0 0 0 0 0 0 0 0 0 0 0 0 0 0 0 0 127 0" result="hardAlpha"/>
<feOffset dy="10"/>
<feGaussianBlur stdDeviation="3"/>
<feComposite in2="hardAlpha" operator="out"/>
<feColorMatrix type="matrix" values="0 0 0 0 0 0 0 0 0 0 0 0 0 0 0 0 0 0 0.25 0"/>
<feBlend mode="normal" in2="BackgroundImageFix" result="effect1_dropShadow_11_56"/>
<feBlend mode="normal" in="SourceGraphic" in2="effect1_dropShadow_11_56" result="shape"/>
</filter>
<filter id="filter3_d_11_56" x="149.312" y="281.25" width="81" height="116.25" filterUnits="userSpaceOnUse" color-interpolation-filters="sRGB">
<feFlood flood-opacity="0" result="BackgroundImageFix"/>
<feColorMatrix in="SourceAlpha" type="matrix" values="0 0 0 0 0 0 0 0 0 0 0 0 0 0 0 0 0 0 127 0" result="hardAlpha"/>
<feOffset dy="10"/>
<feGaussianBlur stdDeviation="3"/>
<feComposite in2="hardAlpha" operator="out"/>
<feColorMatrix type="matrix" values="0 0 0 0 0 0 0 0 0 0 0 0 0 0 0 0 0 0 0.25 0"/>
<feBlend mode="normal" in2="BackgroundImageFix" result="effect1_dropShadow_11_56"/>
<feBlend mode="normal" in="SourceGraphic" in2="effect1_dropShadow_11_56" result="shape"/>
</filter>
<filter id="filter4_d_11_56" x="70" y="280" width="85.6909" height="117.5" filterUnits="userSpaceOnUse" color-interpolation-filters="sRGB">
<feFlood flood-opacity="0" result="BackgroundImageFix"/>
<feColorMatrix in="SourceAlpha" type="matrix" values="0 0 0 0 0 0 0 0 0 0 0 0 0 0 0 0 0 0 127 0" result="hardAlpha"/>
<feOffset dy="10"/>
<feGaussianBlur stdDeviation="3"/>
<feComposite in2="hardAlpha" operator="out"/>
<feColorMatrix type="matrix" values="0 0 0 0 0 0 0 0 0 0 0 0 0 0 0 0 0 0 0.25 0"/>
<feBlend mode="normal" in2="BackgroundImageFix" result="effect1_dropShadow_11_56"/>
<feBlend mode="normal" in="SourceGraphic" in2="effect1_dropShadow_11_56" result="shape"/>
</filter>
<filter id="filter5_d_11_56" x="395.083" y="118.116" width="130.885" height="157.884" filterUnits="userSpaceOnUse" color-interpolation-filters="sRGB">
<feFlood flood-opacity="0" result="BackgroundImageFix"/>
<feColorMatrix in="SourceAlpha" type="matrix" values="0 0 0 0 0 0 0 0 0 0 0 0 0 0 0 0 0 0 127 0" result="hardAlpha"/>
<feOffset dx="20" dy="13"/>
<feGaussianBlur stdDeviation="2"/>
<feComposite in2="hardAlpha" operator="out"/>
<feColorMatrix type="matrix" values="0 0 0 0 0 0 0 0 0 0 0 0 0 0 0 0 0 0 0.54 0"/>
<feBlend mode="normal" in2="BackgroundImageFix" result="effect1_dropShadow_11_56"/>
<feBlend mode="normal" in="SourceGraphic" in2="effect1_dropShadow_11_56" result="shape"/>
</filter>
<filter id="filter6_d_11_56" x="338.5" y="120.5" width="126.899" height="214.178" filterUnits="userSpaceOnUse" color-interpolation-filters="sRGB">
<feFlood flood-opacity="0" result="BackgroundImageFix"/>
<feColorMatrix in="SourceAlpha" type="matrix" values="0 0 0 0 0 0 0 0 0 0 0 0 0 0 0 0 0 0 127 0" result="hardAlpha"/>
<feOffset dx="20" dy="13"/>
<feGaussianBlur stdDeviation="2"/>
<feComposite in2="hardAlpha" operator="out"/>
<feColorMatrix type="matrix" values="0 0 0 0 0 0 0 0 0 0 0 0 0 0 0 0 0 0 0.54 0"/>
<feBlend mode="normal" in2="BackgroundImageFix" result="effect1_dropShadow_11_56"/>
<feBlend mode="normal" in="SourceGraphic" in2="effect1_dropShadow_11_56" result="shape"/>
</filter>
<filter id="filter7_d_11_56" x="267.812" y="162" width="92.0625" height="170.297" filterUnits="userSpaceOnUse" color-interpolation-filters="sRGB">
<feFlood flood-opacity="0" result="BackgroundImageFix"/>
<feColorMatrix in="SourceAlpha" type="matrix" values="0 0 0 0 0 0 0 0 0 0 0 0 0 0 0 0 0 0 127 0" result="hardAlpha"/>
<feOffset dx="20" dy="13"/>
<feGaussianBlur stdDeviation="2"/>
<feComposite in2="hardAlpha" operator="out"/>
<feColorMatrix type="matrix" values="0 0 0 0 0 0 0 0 0 0 0 0 0 0 0 0 0 0 0.54 0"/>
<feBlend mode="normal" in2="BackgroundImageFix" result="effect1_dropShadow_11_56"/>
<feBlend mode="normal" in="SourceGraphic" in2="effect1_dropShadow_11_56" result="shape"/>
</filter>
<filter id="filter8_d_11_56" x="184.869" y="100.117" width="110.119" height="232.252" filterUnits="userSpaceOnUse" color-interpolation-filters="sRGB">
<feFlood flood-opacity="0" result="BackgroundImageFix"/>
<feColorMatrix in="SourceAlpha" type="matrix" values="0 0 0 0 0 0 0 0 0 0 0 0 0 0 0 0 0 0 127 0" result="hardAlpha"/>
<feOffset dx="20" dy="13"/>
<feGaussianBlur stdDeviation="2"/>
<feComposite in2="hardAlpha" operator="out"/>
<feColorMatrix type="matrix" values="0 0 0 0 0 0 0 0 0 0 0 0 0 0 0 0 0 0 0.54 0"/>
<feBlend mode="normal" in2="BackgroundImageFix" result="effect1_dropShadow_11_56"/>
<feBlend mode="normal" in="SourceGraphic" in2="effect1_dropShadow_11_56" result="shape"/>
</filter>
<filter id="filter9_d_11_56" x="77.1602" y="162.398" width="156.212" height="170.057" filterUnits="userSpaceOnUse" color-interpolation-filters="sRGB">
<feFlood flood-opacity="0" result="BackgroundImageFix"/>
<feColorMatrix in="SourceAlpha" type="matrix" values="0 0 0 0 0 0 0 0 0 0 0 0 0 0 0 0 0 0 127 0" result="hardAlpha"/>
<feOffset dx="20" dy="13"/>
<feGaussianBlur stdDeviation="2"/>
<feComposite in2="hardAlpha" operator="out"/>
<feColorMatrix type="matrix" values="0 0 0 0 0 0 0 0 0 0 0 0 0 0 0 0 0 0 0.54 0"/>
<feBlend mode="normal" in2="BackgroundImageFix" result="effect1_dropShadow_11_56"/>
<feBlend mode="normal" in="SourceGraphic" in2="effect1_dropShadow_11_56" result="shape"/>
</filter>
<filter id="filter10_d_11_56" x="7.57397" y="114.149" width="125.301" height="161.851" filterUnits="userSpaceOnUse" color-interpolation-filters="sRGB">
<feFlood flood-opacity="0" result="BackgroundImageFix"/>
<feColorMatrix in="SourceAlpha" type="matrix" values="0 0 0 0 0 0 0 0 0 0 0 0 0 0 0 0 0 0 127 0" result="hardAlpha"/>
<feOffset dx="20" dy="13"/>
<feGaussianBlur stdDeviation="2"/>
<feComposite in2="hardAlpha" operator="out"/>
<feColorMatrix type="matrix" values="0 0 0 0 0 0 0 0 0 0 0 0 0 0 0 0 0 0 0.54 0"/>
<feBlend mode="normal" in2="BackgroundImageFix" result="effect1_dropShadow_11_56"/>
<feBlend mode="normal" in="SourceGraphic" in2="effect1_dropShadow_11_56" result="shape"/>
</filter>
<filter id="filter11_d_11_56" x="0" y="0" width="270" height="171" filterUnits="userSpaceOnUse" color-interpolation-filters="sRGB">
<feFlood flood-opacity="0" result="BackgroundImageFix"/>
<feColorMatrix in="SourceAlpha" type="matrix" values="0 0 0 0 0 0 0 0 0 0 0 0 0 0 0 0 0 0 127 0" result="hardAlpha"/>
<feOffset dy="7"/>
<feGaussianBlur stdDeviation="2"/>
<feComposite in2="hardAlpha" operator="out"/>
<feColorMatrix type="matrix" values="0 0 0 0 0 0 0 0 0 0 0 0 0 0 0 0 0 0 0.25 0"/>
<feBlend mode="normal" in2="BackgroundImageFix" result="effect1_dropShadow_11_56"/>
<feBlend mode="normal" in="SourceGraphic" in2="effect1_dropShadow_11_56" result="shape"/>
</filter>
</defs>
</svg>
