<svg width="539" height="221" viewBox="0 0 539 221" fill="none" xmlns="http://www.w3.org/2000/svg">
<path d="M423.804 157.567L424.272 160H426.75H442.625H445.195L445.59 157.46L450.983 122.711L456.601 157.479L457.008 160H459.562H475.438H477.488L478.233 158.09L475.438 157C478.233 158.09 478.233 158.089 478.233 158.088L478.235 158.084L478.242 158.066L478.27 157.995L478.379 157.714L478.807 156.617C479.182 155.656 479.733 154.245 480.436 152.446C481.843 148.847 483.859 143.696 486.295 137.486C491.167 125.067 497.72 108.415 504.444 91.4823C511.17 74.548 518.063 57.3419 523.617 43.811C526.395 37.044 528.832 31.2087 530.744 26.7909C532.701 22.2687 534.008 19.4674 534.56 18.5643C534.904 18.0016 535.284 17.3357 535.487 16.7132C535.546 16.5357 535.618 16.2781 535.655 15.9714C535.688 15.6924 535.719 15.1604 535.514 14.5479C535.275 13.8357 534.747 13.1335 533.91 12.7344C533.179 12.3859 532.507 12.4111 532.152 12.4555C531.488 12.5383 530.97 12.814 530.772 12.9219C530.496 13.0721 530.229 13.2478 529.994 13.4136C529.52 13.7482 528.967 14.1883 528.374 14.6827C526.982 15.8437 525.02 17.5989 522.692 19.6825C521.125 21.0852 519.392 22.6366 517.554 24.2557C508.197 32.4983 495.747 42.8358 485.223 47.7852L484.029 48.3468L483.636 49.6064L466.607 104.181L462.488 58.2321L462.149 54.4497L458.548 55.6551L443.61 60.6551L441.84 61.2478L441.59 63.0982L437.167 95.8219L433.983 65.6848L433.559 61.6637L429.833 63.2361C425.33 65.1371 422.528 65.458 417.296 66.057C415.201 66.297 412.716 66.5815 409.576 67.0301L406.459 67.4754L407.054 70.5671L423.804 157.567Z" fill="#CE1E2E" stroke="white" stroke-width="6"/>
<path d="M334.5 217L340.372 217.868L363.602 141H386.411L391.111 157.808L391.242 158.276L391.513 158.678L432.013 218.678L437.344 216.047L387.407 67.0466L386.854 65.396L385.146 65.0573C381.896 64.4126 379.02 64.2791 376.453 64.16C375.824 64.1308 375.214 64.1024 374.621 64.0676C371.58 63.8892 368.662 63.5441 365.053 62.191L362.015 61.0517L361.117 64.1696L334.617 156.17L334.5 156.577V157V217ZM369.664 120.062L375.212 100.626L380.615 120.062H369.664Z" fill="#CE1E2E" stroke="white" stroke-width="6"/>
<path d="M291.534 65.2661L291.323 64.4303L290.701 63.8339C277.847 51.5176 276.425 36.4947 274.997 4.86468L269.001 4.92609L263.813 215.426L269.705 216.297L285.83 157.797L285.938 157.406V157V130.062V130.035L285.937 130.007L285.613 112.336L289.988 127.816L290.605 130H292.875H301.562H303.79L304.434 127.868L310.12 109.055L309.75 130.01L309.75 130.036V130.062V157V157.406L309.858 157.797L325.983 216.297L331.875 215.518L332.842 56.5182L332.86 53.5282L329.87 53.5001C326.155 53.4652 323.004 52.1432 314.124 45.5866L310.395 42.8331L309.411 47.3627C307.981 53.9398 304.452 67.7786 297.606 89.3365L291.534 65.2661Z" fill="#CE1E2E" stroke="white" stroke-width="6"/>
<path d="M250.188 160H252.932L253.176 157.266L266.988 2.26628L261.133 1.11663C256.861 14.9799 248.935 22.8274 241.888 29.8038C241.636 30.0535 241.385 30.3022 241.135 30.55C237.576 34.0798 234.075 37.6322 231.8 41.7171C229.434 45.9642 228.414 50.7251 229.556 56.5745C231.48 66.4392 231.503 83.2163 231.002 97.8032C230.881 101.309 230.732 104.665 230.574 107.739L213.871 52.6298L212.962 49.6295L210.004 50.6701L183.004 60.1701L180.869 60.9215L181.005 63.1812L186.693 157.181L186.714 157.532L186.816 157.868L204.503 216.368L210.375 215.5V112.843L229.933 158.188L230.714 160H232.688H250.188Z" fill="#CE1E2E" stroke="white" stroke-width="6"/>
<path d="M127.651 158.954L128.082 158.453L128.262 157.817L133.019 141H155.786L160.486 157.808L160.618 158.281L160.895 158.688L200.02 216.188L205.372 213.635L160.935 66.1346L160.11 63.3977L157.337 64.0891C155.059 64.6569 148.98 65.6298 142.436 66.2774C135.8 66.9342 129.291 67.1897 125.934 66.5526L123.375 66.0668L122.535 68.533L73.1601 213.533L78.276 216.454L127.651 158.954ZM139.039 120.063L144.587 100.626L149.99 120.063H139.039Z" fill="#CE1E2E" stroke="white" stroke-width="6"/>
<path d="M35.0739 155.974L35.5742 158.187L37.8395 158.308L69.3395 159.996L69.4197 160H69.5C74.7208 160 79.5007 159.413 83.8122 158.2C88.1412 156.983 91.9165 155.128 95.0701 152.586C98.2364 150.034 100.671 146.861 102.361 143.106C104.066 139.317 104.875 135.03 104.875 130.312C104.875 127.756 104.527 125.273 103.825 122.874C103.155 120.399 102.101 118.102 100.666 115.997L100.652 115.976L100.637 115.955C99.2297 113.966 97.4946 112.236 95.4548 110.763C94.8611 110.326 94.2209 109.919 93.5373 109.539C94.5384 108.813 95.4638 108.029 96.3088 107.184C98.4382 105.054 100.045 102.574 101.113 99.7638C102.203 96.9623 102.765 94.0077 102.812 90.9204L102.812 90.8977V90.875C102.812 86.2589 101.953 82.0928 100.121 78.4705C98.3564 74.9004 95.8206 71.9395 92.5495 69.6165C89.3139 67.3187 85.4729 65.6603 81.0929 64.5872C76.8952 63.5488 72.2913 63.029 67.2996 63.0012C32.7815 53.0846 15.4648 35.7262 9.37673 15.1489L3.57387 16.6616L35.0739 155.974ZM74.7779 139.079L74.7683 139.082L74.7587 139.085C73.3237 139.552 71.6045 139.812 69.5625 139.812H56.9375V119.875H70.2862C72.5031 119.915 74.2885 120.215 75.6994 120.708C77.1229 121.204 78.1557 121.87 78.903 122.645L78.9219 122.665L78.9412 122.684C79.6966 123.439 80.2664 124.379 80.6327 125.57L80.6429 125.603L80.654 125.636C81.0762 126.903 81.3125 128.408 81.3125 130.188C81.3125 131.778 81.0265 133.124 80.5115 134.275L80.498 134.305L80.4851 134.336C80.0069 135.472 79.2978 136.438 78.3261 137.261C77.4738 137.963 76.3187 138.588 74.7779 139.079ZM76.9688 98.2922L76.9416 98.3173L76.9149 98.343C76.0789 99.1512 74.8876 99.8564 73.2113 100.373C71.4882 100.862 69.4208 101.148 66.9761 101.188H56.9375V83.3125H66.9153C69.5551 83.3528 71.7374 83.6443 73.5036 84.1389L73.511 84.141L73.5183 84.143C75.242 84.6161 76.4186 85.3215 77.2192 86.1488L77.2595 86.1904L77.3013 86.2304C77.8748 86.7789 78.3354 87.4929 78.654 88.4487L78.6668 88.4871L78.6806 88.5252C79.0352 89.5004 79.25 90.744 79.25 92.3125C79.25 93.7281 79.0148 94.882 78.6133 95.8284L78.598 95.8642L78.5838 95.9004C78.2009 96.8724 77.6618 97.6547 76.9688 98.2922Z" fill="#CE1E2E" stroke="white" stroke-width="6"/>
</svg>
